<svg xmlns="http://www.w3.org/2000/svg" viewBox="0 0 64 80"><path d="M32 2a30 30 0 1030 30A30.034 30.034 0 0032 2zm0 58a28 28 0 1128-28 28.032 28.032 0 01-28 28z"/><path d="M32 6a26 26 0 1026 26A26.03 26.03 0 0032 6zm0 50a24 24 0 1124-24 24.028 24.028 0 01-24 24z"/><path d="M46.363 16.277l-16.146 8.97a6.889 6.889 0 00-4.972 4.973l-8.968 16.143a1 1 0 001.36 1.36l16.146-8.97a6.889 6.889 0 004.972-4.973l8.968-16.143a1 1 0 00-1.36-1.36zm-26.638 28l5.613-10.1c.037.112.087.219.129.329s.08.218.128.325c.07.16.153.314.236.468.052.1.1.2.155.289.1.166.212.325.326.484.055.075.1.154.16.228a6.717 6.717 0 001.159 1.173c.065.052.132.1.2.147.141.105.283.207.43.3a6.734 6.734 0 00.675.377c.082.04.163.08.247.117.162.072.327.135.494.194.052.018.1.044.155.061zm13.421-7.414a4.954 4.954 0 01-4.682-1.325 5.16 5.16 0 01-.428-.487 5.006 5.006 0 013.43-8.016c.071-.008.143-.008.215-.013.127-.008.255-.017.381-.016a4.9 4.9 0 01.848.083c.062.011.123.026.184.04a4.943 4.943 0 01.761.231c.023.01.049.016.072.026a5.006 5.006 0 01.757.4q.084.055.168.114a4.739 4.739 0 011.112 1.049 4.99 4.99 0 01-2.818 7.91zm5.516-7.031c-.037-.112-.087-.219-.129-.329s-.08-.218-.128-.325c-.07-.16-.153-.314-.236-.468-.052-.1-.1-.195-.155-.289a6.96 6.96 0 00-.327-.484c-.054-.075-.1-.154-.159-.228a7.284 7.284 0 00-.578-.657 7.161 7.161 0 00-.658-.578c-.072-.057-.151-.1-.225-.158a7.046 7.046 0 00-.487-.329c-.093-.056-.19-.1-.285-.152a6.957 6.957 0 00-.472-.239c-.106-.047-.215-.085-.323-.126s-.218-.093-.33-.13l10.1-5.613zM15 31h-4a1 1 0 000 2h4a1 1 0 000-2zm38 0h-4a1 1 0 000 2h4a1 1 0 000-2zM32 16a1 1 0 001-1v-4a1 1 0 00-2 0v4a1 1 0 001 1zm0 32a1 1 0 00-1 1v4a1 1 0 002 0v-4a1 1 0 00-1-1z"/><text y="79" font-size="5" font-weight="bold" font-family="'Helvetica Neue', Helvetica, Arial-Unicode, Arial, Sans-serif">Created by Sarote Impheng</text><text y="84" font-size="5" font-weight="bold" font-family="'Helvetica Neue', Helvetica, Arial-Unicode, Arial, Sans-serif">from the Noun Project</text></svg>