<svg xmlns="http://www.w3.org/2000/svg" viewBox="0 0 64 80" x="0px" y="0px"><g><path d="M32,2A30,30,0,1,0,62,32,30.034,30.034,0,0,0,32,2Zm0,58A28,28,0,1,1,60,32,28.032,28.032,0,0,1,32,60Z"/><path d="M32,6A26,26,0,1,0,58,32,26.03,26.03,0,0,0,32,6Zm0,50A24,24,0,1,1,56,32,24.028,24.028,0,0,1,32,56Z"/><path d="M46.363,16.277l-16.146,8.97a6.889,6.889,0,0,0-4.972,4.973L16.277,46.363a1,1,0,0,0,1.36,1.36l16.146-8.97a6.889,6.889,0,0,0,4.972-4.973l8.968-16.143a1,1,0,0,0-1.36-1.36Zm-26.638,28,5.613-10.1c.037.112.087.219.129.329s.08.218.128.325c.07.16.153.314.236.468.052.1.1.2.155.289.1.166.212.325.326.484.055.075.1.154.16.228a6.717,6.717,0,0,0,1.159,1.173c.065.052.132.1.2.147.141.105.283.207.43.3.079.05.159.1.24.144.143.083.287.161.435.233.082.04.163.08.247.117.162.072.327.135.494.194.052.018.1.044.155.061Zm13.421-7.414a4.954,4.954,0,0,1-4.682-1.325,5.16,5.16,0,0,1-.428-.487,5.006,5.006,0,0,1,3.43-8.016c.071-.008.143-.008.215-.013.127-.008.255-.017.381-.016a4.9,4.9,0,0,1,.848.083c.062.011.123.026.184.04a4.943,4.943,0,0,1,.761.231c.023.01.049.016.072.026a5.006,5.006,0,0,1,.757.4q.084.055.168.114a4.739,4.739,0,0,1,1.112,1.049,4.99,4.99,0,0,1-2.818,7.91Zm5.516-7.031c-.037-.112-.087-.219-.129-.329s-.08-.218-.128-.325c-.07-.16-.153-.314-.236-.468-.052-.1-.1-.195-.155-.289-.1-.166-.212-.325-.327-.484-.054-.075-.1-.154-.159-.228a7.284,7.284,0,0,0-.578-.657,7.161,7.161,0,0,0-.658-.578c-.072-.057-.151-.1-.225-.158-.16-.115-.32-.229-.487-.329-.093-.056-.19-.1-.285-.152-.155-.084-.311-.167-.472-.239-.106-.047-.215-.085-.323-.126s-.218-.093-.33-.13l10.1-5.613Z"/><path d="M15,31H11a1,1,0,0,0,0,2h4a1,1,0,0,0,0-2Z"/><path d="M53,31H49a1,1,0,0,0,0,2h4a1,1,0,0,0,0-2Z"/><path d="M32,16a1,1,0,0,0,1-1V11a1,1,0,0,0-2,0v4A1,1,0,0,0,32,16Z"/><path d="M32,48a1,1,0,0,0-1,1v4a1,1,0,0,0,2,0V49A1,1,0,0,0,32,48Z"/></g><text x="0" y="79" fill="#000000" font-size="5px" font-weight="bold" font-family="'Helvetica Neue', Helvetica, Arial-Unicode, Arial, Sans-serif">Created by Sarote Impheng</text><text x="0" y="84" fill="#000000" font-size="5px" font-weight="bold" font-family="'Helvetica Neue', Helvetica, Arial-Unicode, Arial, Sans-serif">from the Noun Project</text></svg>